<?xml version="1.0" standalone="no"?>
<!DOCTYPE svg PUBLIC "-//W3C//DTD SVG 20010904//EN"
 "http://www.w3.org/TR/2001/REC-SVG-20010904/DTD/svg10.dtd">
<svg version="1.0" xmlns="http://www.w3.org/2000/svg"
 width="984.000000pt" height="984.000000pt" viewBox="0 0 984.000000 984.000000"
 preserveAspectRatio="xMidYMid meet">
<metadata>
Created by potrace 1.14, written by Peter Selinger 2001-2017
</metadata>
<g transform="translate(0.000000,984.000000) scale(0.100000,-0.100000)"
fill="#000000" stroke="none">
<path d="M4528 9255 c-3 -3 -108 -13 -203 -20 -27 -1 -50 -4 -50 -5 0 -1 -18
-3 -40 -4 -39 -3 -120 -13 -180 -22 -16 -3 -41 -7 -55 -9 -14 -2 -41 -6 -60
-10 -19 -3 -48 -8 -65 -10 -16 -2 -32 -4 -35 -5 -3 -1 -9 -3 -15 -4 -5 -1 -30
-5 -55 -10 -49 -9 -69 -13 -150 -31 -14 -4 -36 -8 -50 -11 -43 -9 -184 -44
-200 -51 -8 -3 -24 -7 -35 -8 -37 -5 -462 -142 -480 -154 -5 -4 -30 -14 -55
-21 -25 -7 -49 -17 -55 -21 -5 -3 -21 -10 -33 -14 -13 -4 -48 -18 -78 -31 -30
-13 -57 -24 -62 -25 -4 -1 -16 -8 -27 -15 -11 -8 -27 -14 -37 -14 -10 0 -18
-4 -18 -10 0 -5 -5 -10 -11 -10 -16 0 -228 -105 -327 -162 -46 -26 -85 -48
-87 -48 -5 0 -129 -73 -135 -80 -3 -3 -17 -11 -32 -19 -16 -8 -28 -18 -28 -23
0 -4 -5 -8 -12 -8 -6 0 -26 -11 -44 -25 -18 -14 -36 -25 -39 -25 -4 0 -20 -10
-35 -22 -15 -13 -37 -30 -50 -38 -20 -13 -53 -38 -85 -62 -84 -65 -172 -135
-181 -143 -6 -5 -38 -32 -70 -60 -32 -27 -107 -97 -167 -155 -60 -58 -113
-106 -118 -108 -5 -2 -9 -7 -9 -11 0 -4 -25 -34 -56 -67 -55 -59 -171 -194
-229 -268 -16 -21 -38 -48 -47 -60 -20 -24 -29 -36 -43 -57 -5 -9 -45 -67 -87
-131 -42 -63 -87 -133 -99 -154 -68 -121 -117 -214 -111 -214 4 0 2 -4 -4 -8
-21 -13 -192 -412 -177 -412 3 0 0 -6 -6 -14 -7 -8 -13 -22 -16 -32 -2 -11
-10 -38 -19 -62 -8 -23 -15 -44 -16 -47 0 -3 0 -6 -1 -7 0 -2 -2 -10 -4 -18
-2 -8 -15 -55 -29 -105 -14 -49 -27 -102 -31 -117 -3 -16 -7 -40 -10 -55 -3
-16 -12 -60 -20 -99 -8 -39 -17 -95 -20 -125 -4 -30 -8 -60 -11 -67 -17 -54
-25 -508 -11 -682 3 -41 7 -75 7 -75 1 0 3 -16 5 -35 2 -19 7 -51 11 -70 4
-19 8 -46 10 -60 2 -14 6 -41 10 -60 4 -19 8 -42 10 -50 9 -46 16 -86 17 -90
0 -3 11 -43 24 -90 14 -47 27 -94 30 -105 10 -41 35 -121 43 -140 4 -11 13
-36 20 -55 7 -19 18 -48 25 -65 8 -16 23 -54 35 -84 22 -58 106 -230 157 -321
95 -173 309 -489 358 -530 8 -7 15 -16 15 -21 0 -5 8 -17 17 -27 10 -10 43
-47 73 -82 30 -36 123 -134 207 -217 l152 -153 -13 -32 c-7 -18 -17 -42 -21
-53 -5 -11 -9 -22 -10 -25 -3 -9 -18 -44 -33 -80 -8 -19 -16 -42 -18 -50 -2
-8 -8 -23 -13 -35 -9 -17 -30 -67 -36 -85 -1 -3 -7 -18 -13 -33 -7 -16 -12
-35 -12 -43 0 -8 -4 -14 -10 -14 -5 0 -10 -6 -10 -14 0 -11 -72 -200 -110
-291 -5 -11 -23 -56 -40 -100 -18 -44 -36 -89 -41 -100 -4 -11 -23 -56 -40
-100 -45 -114 -50 -129 -51 -135 -1 -3 -14 -36 -30 -75 -38 -91 -45 -108 -47
-117 -1 -5 -12 -33 -26 -63 -13 -31 -24 -56 -24 -58 1 -4 -105 -272 -146 -369
-13 -31 -21 -59 -18 -62 4 -3 1 -6 -5 -6 -7 0 -12 -7 -12 -15 0 -9 -7 -30 -16
-46 -21 -42 -15 -49 31 -33 22 7 52 15 66 18 14 2 35 8 45 14 11 5 22 11 26
11 4 1 13 3 20 6 7 2 38 10 68 18 30 8 109 31 175 51 192 59 317 97 355 107
19 6 42 13 50 16 8 3 20 7 26 8 6 2 48 14 95 28 46 14 154 47 239 72 85 26
191 58 235 71 44 14 85 26 90 28 6 1 30 9 55 16 25 7 50 15 55 16 6 2 42 12
80 24 39 12 90 28 115 35 25 7 99 30 165 50 66 20 127 38 135 40 8 2 17 4 20
6 3 1 10 3 15 4 6 1 42 12 80 24 39 12 77 24 85 26 8 2 47 14 85 26 39 12 77
23 85 24 8 1 22 5 30 9 14 6 175 55 195 60 6 1 27 8 48 15 41 14 102 8 126
-12 8 -7 15 -10 15 -8 1 2 24 -4 51 -12 28 -8 95 -29 150 -45 91 -27 115 -33
180 -49 40 -9 50 -12 50 -13 0 -1 7 -3 16 -5 10 -1 50 -11 90 -20 41 -9 85
-19 99 -20 14 -2 39 -6 55 -9 67 -13 101 -19 125 -23 98 -14 159 -23 210 -28
19 -3 51 -6 70 -9 205 -26 752 -27 980 0 30 3 69 7 85 9 55 5 143 16 166 20
13 3 39 7 59 10 20 3 45 7 55 9 11 2 40 7 65 11 121 18 416 84 540 120 23 7
82 23 120 33 104 28 459 153 502 177 14 8 31 15 38 15 6 0 41 14 77 30 35 17
66 30 68 30 9 0 267 122 275 130 3 3 45 25 95 50 121 61 249 133 253 142 2 4
8 8 12 8 9 0 160 89 170 99 3 3 45 33 95 66 78 52 298 218 331 249 6 6 40 36
75 66 65 56 316 304 379 375 43 49 177 209 207 250 13 17 36 48 53 70 16 22
34 45 40 52 5 7 10 16 10 22 0 5 4 11 9 13 8 3 113 164 169 258 55 93 187 370
223 466 12 33 26 70 32 84 6 14 11 30 12 35 2 6 13 39 25 75 12 36 24 72 26
80 2 8 18 67 34 130 17 63 33 126 35 140 2 14 7 36 10 50 9 42 36 212 40 255
3 22 8 74 12 115 12 126 6 655 -7 655 -2 0 -6 25 -14 100 -6 54 -10 77 -21
140 -5 23 -23 109 -24 113 -1 3 -3 11 -14 57 -4 17 -9 39 -11 51 -7 33 -46
165 -61 207 -8 20 -15 38 -14 40 0 2 0 2 -40 112 -49 136 -180 427 -200 445
-3 3 -15 23 -26 45 -43 87 -230 377 -246 383 -5 2 -9 8 -9 13 0 9 -157 211
-219 282 -129 148 -326 343 -457 454 -27 23 -60 51 -74 63 -14 12 -36 30 -50
38 -14 9 -31 25 -38 34 -7 10 -20 18 -28 18 -8 0 -14 4 -14 8 0 4 -32 30 -71
57 -39 28 -84 60 -99 73 -15 12 -32 22 -38 22 -6 0 -12 4 -14 8 -4 11 -94 72
-105 72 -5 0 -18 8 -29 18 -10 10 -26 21 -34 25 -8 4 -24 13 -35 20 -11 7 -47
28 -80 48 -117 71 -354 193 -497 258 -88 39 -160 70 -178 76 -5 2 -20 7 -100
39 -110 43 -143 56 -151 56 -4 0 -20 5 -36 12 -15 6 -31 12 -35 13 -5 2 -10 4
-13 5 -3 1 -8 3 -12 4 -5 1 -55 17 -113 35 -58 18 -118 36 -135 41 -43 13
-266 70 -290 75 -11 2 -31 6 -45 10 -14 3 -38 8 -54 10 -15 2 -36 7 -46 10
-10 3 -31 8 -46 10 -16 2 -40 6 -54 9 -30 6 -132 23 -180 30 -19 3 -44 7 -55
10 -11 2 -51 7 -88 11 -37 3 -78 8 -90 11 -12 2 -39 5 -60 6 -21 1 -40 5 -43
9 -2 5 -15 4 -28 -1 -13 -5 -26 -7 -29 -4 -2 3 -22 7 -43 10 -41 6 -800 15
-806 9z m642 -759 c58 -3 125 -9 150 -12 25 -3 63 -7 85 -9 40 -4 120 -13 185
-21 19 -2 60 -9 90 -14 30 -5 69 -12 85 -14 17 -3 41 -8 55 -11 14 -3 42 -7
62 -9 21 -2 42 -7 47 -10 5 -3 24 -8 42 -11 19 -2 97 -20 174 -40 77 -20 147
-38 155 -40 8 -2 27 -8 41 -13 15 -6 30 -8 33 -5 3 4 6 0 6 -7 0 -7 3 -11 6
-7 3 3 31 -4 62 -15 32 -10 64 -21 73 -23 8 -2 31 -10 51 -18 20 -9 39 -13 42
-9 3 3 6 0 6 -6 0 -7 6 -12 14 -12 8 0 27 -5 43 -11 15 -6 29 -10 30 -10 2 0
37 -15 78 -34 42 -19 79 -35 83 -35 65 -12 505 -246 671 -359 29 -20 61 -40
69 -46 28 -17 276 -202 302 -225 14 -12 37 -32 52 -46 15 -13 30 -24 33 -24 9
0 347 -341 385 -389 19 -24 42 -51 50 -60 8 -9 36 -45 63 -81 26 -36 51 -70
56 -76 4 -5 21 -30 37 -55 16 -24 32 -48 37 -54 27 -36 67 -102 67 -112 0 -7
5 -13 10 -13 6 0 10 -5 10 -11 0 -6 9 -24 21 -40 11 -16 17 -29 12 -29 -4 0 1
-7 12 -16 11 -8 18 -16 16 -17 -2 -1 17 -47 43 -102 26 -55 66 -145 87 -199
44 -108 122 -366 114 -374 -3 -3 0 -11 5 -18 6 -6 10 -16 9 -20 -2 -5 2 -34 9
-64 6 -30 14 -75 17 -100 3 -25 8 -52 10 -60 2 -8 7 -50 10 -94 3 -43 8 -82
11 -87 3 -5 -1 -9 -8 -9 -8 0 -9 -3 -3 -8 17 -11 9 -327 -11 -457 -3 -22 -8
-53 -10 -70 -2 -16 -6 -41 -9 -55 -3 -14 -7 -38 -10 -55 -3 -16 -7 -41 -10
-55 -3 -14 -8 -36 -11 -50 -21 -107 -117 -387 -170 -495 -13 -28 -24 -56 -24
-63 0 -6 -5 -12 -12 -12 -6 0 -8 -3 -5 -7 4 -3 3 -11 -2 -17 -8 -10 -53 -91
-89 -161 -9 -16 -35 -58 -59 -93 -24 -35 -43 -66 -43 -69 0 -3 -11 -19 -26
-37 -14 -17 -71 -89 -127 -161 -112 -143 -364 -402 -497 -510 -47 -39 -86 -73
-88 -77 -2 -5 -8 -8 -14 -8 -5 0 -15 -6 -23 -12 -25 -24 -55 -48 -61 -48 -3 0
-12 -6 -20 -14 -23 -23 -211 -146 -223 -146 -6 0 -11 -4 -11 -10 0 -5 -7 -10
-15 -10 -8 0 -15 -4 -15 -9 0 -5 -12 -14 -27 -20 -16 -7 -46 -22 -68 -35 -22
-12 -71 -40 -110 -61 -38 -21 -76 -42 -82 -48 -7 -5 -13 -7 -13 -3 0 3 -18 -5
-40 -19 -22 -14 -46 -25 -55 -25 -8 0 -15 -4 -15 -10 0 -5 -5 -10 -11 -10 -6
0 -45 -16 -86 -36 -68 -32 -120 -55 -133 -59 -3 -1 -21 -8 -40 -17 -128 -56
-542 -197 -630 -215 -35 -7 -39 -8 -90 -22 -25 -7 -56 -15 -70 -18 -35 -7 -54
-11 -60 -13 -3 -1 -8 -2 -11 -2 -4 1 -22 -3 -40 -8 -19 -6 -54 -13 -79 -16
-25 -3 -49 -8 -53 -11 -4 -2 -21 -6 -38 -8 -45 -6 -102 -15 -129 -20 -14 -3
-47 -7 -75 -10 -27 -4 -62 -8 -78 -11 -187 -31 -672 -36 -927 -9 -101 11 -128
14 -165 20 -22 3 -67 10 -100 16 -66 10 -86 14 -160 29 -27 6 -61 13 -75 15
-14 3 -36 8 -50 12 -14 3 -29 7 -35 8 -5 2 -46 13 -90 24 -44 12 -87 24 -95
26 -8 2 -16 4 -17 4 -2 1 -6 2 -10 3 -14 2 -226 75 -273 93 -79 30 -84 32
-122 48 -36 16 -40 15 -170 -24 -73 -23 -162 -49 -198 -59 -36 -10 -86 -25
-112 -34 -25 -8 -49 -12 -52 -9 -3 4 -6 1 -6 -5 0 -7 -3 -11 -7 -10 -5 1 -35
-6 -68 -16 -33 -10 -67 -20 -75 -21 -8 -2 -46 -14 -85 -26 -38 -12 -74 -23
-80 -25 -5 -1 -57 -16 -114 -34 -57 -17 -111 -33 -120 -35 -9 -2 -43 -12 -76
-23 -50 -17 -135 -43 -155 -47 -3 0 -39 -11 -80 -24 -41 -13 -79 -24 -85 -26
-5 -1 -17 -4 -25 -7 -8 -3 -35 -11 -59 -18 -23 -6 -50 -14 -58 -17 -17 -7 -13
15 13 72 7 17 27 66 44 110 17 44 35 89 40 100 5 11 27 65 48 120 21 55 43
109 47 120 4 11 9 25 11 30 3 12 91 232 104 260 5 11 34 83 65 160 l55 140
-34 30 c-18 17 -71 59 -116 94 -45 36 -88 71 -95 78 -8 7 -16 13 -20 13 -4 0
-12 6 -19 13 -7 6 -37 32 -67 57 -127 105 -318 307 -477 505 -57 71 -159 222
-213 317 -9 15 -22 35 -29 43 -7 8 -9 15 -6 15 4 0 -1 12 -12 28 -17 25 -76
140 -77 152 0 3 -5 14 -11 25 -6 11 -21 47 -33 80 -13 33 -27 69 -31 80 -24
54 -74 234 -94 335 -3 14 -7 34 -9 45 -3 11 -8 40 -12 65 -4 25 -9 52 -10 61
-12 61 -18 190 -18 349 0 199 7 292 28 400 3 14 7 39 9 55 3 17 16 77 31 135
14 58 31 123 36 145 5 22 19 65 30 95 12 30 23 63 25 74 2 10 8 24 15 32 6 8
9 14 6 14 -15 0 189 429 214 450 3 3 14 19 23 35 24 43 69 111 121 181 16 23
39 55 50 70 11 15 27 35 35 44 8 9 35 41 60 71 141 172 360 383 555 534 50 38
92 73 93 77 2 5 8 8 13 8 5 0 40 22 78 49 59 42 131 88 239 152 130 77 369
199 376 192 3 -4 6 -1 6 5 0 7 4 12 10 12 5 0 42 15 82 33 65 30 102 46 118
52 3 1 14 5 25 10 96 39 135 53 135 48 0 -3 6 0 14 6 8 7 27 14 41 17 15 3 41
12 56 20 16 8 29 12 29 10 0 -3 15 1 34 9 18 8 44 16 57 19 13 3 40 10 59 16
41 14 214 59 250 66 14 3 33 7 42 10 9 3 27 7 40 9 13 3 68 14 123 24 55 11
120 22 145 26 25 3 56 8 70 10 50 9 86 14 155 21 39 3 79 8 90 10 11 2 67 7
125 10 58 4 106 7 108 9 5 5 458 -2 562 -9z"/>
<path d="M3496 6442 c-3 -3 -85 -15 -103 -15 -7 0 -13 -5 -13 -10 0 -6 -3 -8
-6 -4 -10 10 -104 -42 -156 -85 -60 -50 -122 -142 -144 -216 -16 -50 -18 -107
-20 -484 -1 -235 2 -449 7 -475 5 -27 23 -77 41 -113 32 -66 121 -170 145
-170 7 0 13 -4 13 -8 0 -10 55 -37 120 -60 37 -13 99 -16 345 -17 l300 -1 0
-59 c0 -33 -3 -80 -8 -105 -4 -25 -10 -59 -13 -76 -3 -18 -14 -55 -24 -84 -54
-148 -163 -225 -345 -245 -138 -15 -221 -42 -282 -92 -66 -54 -85 -96 -85
-180 0 -81 49 -150 137 -193 122 -59 279 -44 519 50 197 77 387 215 475 344 8
12 18 23 21 26 25 21 115 200 135 270 23 79 47 169 50 185 13 70 22 133 31
230 9 91 9 540 0 815 -15 447 -13 426 -62 526 -59 121 -206 225 -339 240 -56
6 -734 12 -739 6z"/>
<path d="M5615 6442 c-1 -2 -13 -5 -26 -6 -53 -8 -89 -19 -89 -28 0 -5 -4 -7
-8 -4 -15 9 -108 -52 -159 -104 -46 -46 -101 -135 -95 -152 1 -5 -3 -8 -10 -8
-6 0 -8 -3 -5 -6 3 -4 2 -14 -2 -23 -18 -34 -22 -129 -21 -516 1 -347 3 -450
10 -450 1 0 3 -11 6 -25 6 -32 49 -121 71 -148 10 -11 25 -30 33 -42 20 -29
138 -107 175 -116 17 -4 35 -9 40 -13 21 -12 69 -14 348 -15 248 -1 287 -3
288 -16 2 -34 -3 -92 -15 -180 -33 -239 -148 -350 -388 -375 -139 -15 -236
-53 -299 -119 -22 -22 -43 -53 -46 -69 -3 -15 -9 -29 -13 -32 -12 -8 1 -98 21
-136 27 -53 93 -106 158 -125 53 -16 195 -26 216 -15 6 3 19 7 30 9 31 5 49 9
65 14 8 3 53 18 99 33 278 91 498 263 619 485 39 72 105 230 96 230 -3 0 0 8
5 18 5 9 12 34 15 56 4 21 8 41 10 45 2 3 7 24 10 46 3 22 8 56 11 75 15 94
17 126 28 478 1 28 0 52 -3 52 -3 0 -6 64 -6 143 -1 78 -5 252 -8 387 -9 334
-27 400 -141 515 -75 77 -158 119 -256 131 -46 6 -758 11 -764 6z"/>
</g>
</svg>
